<?xml version="1.0" encoding="UTF-8" standalone="no" ?>
<!DOCTYPE svg PUBLIC "-//W3C//DTD SVG 1.1//EN" "http://www.w3.org/Graphics/SVG/1.1/DTD/svg11.dtd">
<svg xmlns="http://www.w3.org/2000/svg" xmlns:xlink="http://www.w3.org/1999/xlink" version="1.1" width="500" height="500" viewBox="0 0 500 500" xml:space="preserve">
<desc>Created with Fabric.js 5.2.4</desc>
<defs>
</defs>
<g transform="matrix(1 0 0 1 250 250)" id="7f524316-5628-4ee9-aa9e-d8a768673061"  >
<rect style="stroke: none; stroke-width: 1; stroke-dasharray: none; stroke-linecap: butt; stroke-dashoffset: 0; stroke-linejoin: miter; stroke-miterlimit: 4; fill: rgb(255,255,255); fill-rule: nonzero; opacity: 1; visibility: hidden;" vector-effect="non-scaling-stroke"  x="-250" y="-250" rx="0" ry="0" width="500" height="500" />
</g>
<g transform="matrix(Infinity NaN NaN Infinity 0 0)" id="ed29f435-cf49-46a2-8eca-e3cb47881fe4"  >
</g>
<g transform="matrix(1.37 0 0 1.37 688.91 250)"  >
<g style="" vector-effect="non-scaling-stroke"   >
		<g transform="matrix(1.33 0 0 -1.33 -78.4 70.07)" id="path12"  >
<path style="stroke: none; stroke-width: 1; stroke-dasharray: none; stroke-linecap: butt; stroke-dashoffset: 0; stroke-linejoin: miter; stroke-miterlimit: 4; fill: rgb(63,169,245); fill-rule: nonzero; opacity: 1;" vector-effect="non-scaling-stroke"  transform=" translate(-8.07, 15)" d="M 0 0 L 16.141 0 L 16.141 -4.888 L 5.949 -4.888 L 5.949 -12.968 L 16.141 -12.968 L 16.141 -18.172 L 5.949 -18.172 L 5.949 -29.998 L 0 -29.998 Z" stroke-linecap="round" />
</g>
		<g transform="matrix(1.33 0 0 -1.33 -55.68 70.07)" id="path14"  >
<path style="stroke: none; stroke-width: 1; stroke-dasharray: none; stroke-linecap: butt; stroke-dashoffset: 0; stroke-linejoin: miter; stroke-miterlimit: 4; fill: rgb(63,169,245); fill-rule: nonzero; opacity: 1;" vector-effect="non-scaling-stroke"  transform=" translate(-310.22, -60)" d="M 313.191 45.003 L 307.24199999999996 45.003 L 307.24199999999996 75.001 L 313.191 75.001 z" stroke-linecap="round" />
</g>
		<g transform="matrix(1.33 0 0 -1.33 -26.2 70.07)" id="path18"  >
<path style="stroke: none; stroke-width: 1; stroke-dasharray: none; stroke-linecap: butt; stroke-dashoffset: 0; stroke-linejoin: miter; stroke-miterlimit: 4; fill: rgb(63,169,245); fill-rule: nonzero; opacity: 1;" vector-effect="non-scaling-stroke"  transform=" translate(-6.17, 15)" d="M 0 0 L 6.345 -9.578 L 12.73 0 L 19.195 0 L 9.637 -14.388 L 20.028 -29.998 L 13.801 -29.998 L 6.345 -18.842 L -1.348 -29.998 L -7.694 -29.998 L 2.935 -14.428 L -6.266 0 Z" stroke-linecap="round" />
</g>
		<g transform="matrix(1.33 0 0 -1.33 27.98 70.04)" id="path30" clip-path="url(#CLIPPATH_4)"  >
<clipPath id="CLIPPATH_4" >
	<path transform="matrix(1 0 0 1 -22.74 52.53) translate(-350.22, -112.55)" id="path24" d="M 0 225.104 L 700.436 225.104 L 700.436 0 L 0 0 Z" stroke-linecap="round" />
</clipPath>
<path style="stroke: none; stroke-width: 1; stroke-dasharray: none; stroke-linecap: butt; stroke-dashoffset: 0; stroke-linejoin: miter; stroke-miterlimit: 4; fill: rgb(63,169,245); fill-rule: nonzero; opacity: 1;" vector-effect="non-scaling-stroke"  transform=" translate(11.11, 7.6)" d="M 0 0 C -3.966 2.839 -7.614 2.602 -10.311 1.379 C -13.682 -0.15799999999999992 -15.586 -2.9949999999999997 -16.141 -5.834 C -16.616999999999997 -8.672 -16.418999999999997 -12.102 -13.285999999999998 -15.019 C -11.024999999999999 -17.148 -7.891999999999998 -18.251 -4.758999999999999 -17.581 C -2.6969999999999987 -17.148 -1.5069999999999988 -16.358 1.7763568394002505e-15 -15.216 L 1.7763568394002505e-15 -21.009999999999998 C -4.838999999999999 -23.296 -10.390999999999998 -23.691 -15.347999999999999 -20.537 C -21.415999999999997 -16.674 -22.288 -11.588999999999999 -22.209 -7.055999999999999 C -22.13 -2.8389999999999995 -19.909 2.3260000000000005 -14.674 5.519 C -10.034 8.317 -4.68 8.081 0 6.11 Z" stroke-linecap="round" />
</g>
		<g transform="matrix(1.33 0 0 -1.33 66.89 70.41)" id="path34" clip-path="url(#CLIPPATH_5)"  >
<clipPath id="CLIPPATH_5" >
	<path transform="matrix(1 0 0 1 -51.92 52.81) translate(-350.22, -112.55)" id="path24" d="M 0 225.104 L 700.436 225.104 L 700.436 0 L 0 0 Z" stroke-linecap="round" />
</clipPath>
<path style="stroke: none; stroke-width: 1; stroke-dasharray: none; stroke-linecap: butt; stroke-dashoffset: 0; stroke-linejoin: miter; stroke-miterlimit: 4; fill: rgb(63,169,245); fill-rule: nonzero; opacity: 1;" vector-effect="non-scaling-stroke"  transform=" translate(-5.81, 15.26)" d="M 0 0 L 0 -16.753 C 0 -19.434 -0.159 -22.823999999999998 2.578 -24.4 C 4.3629999999999995 -25.384999999999998 7.613999999999999 -25.424999999999997 9.32 -24.439999999999998 C 11.898 -22.901999999999997 11.620000000000001 -18.171999999999997 11.620000000000001 -16.949999999999996 L 11.620000000000001 0 L 17.568 0 L 17.568 -17.778 C 17.568 -20.616 17.966 -26.095 12.532000000000002 -29.208999999999996 C 9.240000000000002 -31.061999999999998 2.2600000000000016 -30.903999999999996 -1.0309999999999988 -29.011999999999997 C -5.393999999999999 -26.449999999999996 -5.948999999999999 -21.206999999999997 -5.948999999999999 -17.382999999999996 L -5.948999999999999 3.552713678800501e-15 z" stroke-linecap="round" />
</g>
		<g transform="matrix(1.33 0 0 -1.33 112.5 70.07)" id="path38" clip-path="url(#CLIPPATH_6)"  >
<clipPath id="CLIPPATH_6" >
	<path transform="matrix(1 0 0 1 -86.13 52.55) translate(-350.22, -112.55)" id="path24" d="M 0 225.104 L 700.436 225.104 L 700.436 0 L 0 0 Z" stroke-linecap="round" />
</clipPath>
<path style="stroke: none; stroke-width: 1; stroke-dasharray: none; stroke-linecap: butt; stroke-dashoffset: 0; stroke-linejoin: miter; stroke-miterlimit: 4; fill: rgb(63,169,245); fill-rule: nonzero; opacity: 1;" vector-effect="non-scaling-stroke"  transform=" translate(-7.18, 15)" d="M 0 0 L 7.297 -19.236 L 14.356 0 L 20.146 0 L 24.787 -29.998 L 19.433 -29.998 L 16.3 -10.131 L 9.002 -29.998 L 5.631 -29.998 L -1.864 -9.42 L -5.116 -29.998 L -10.431000000000001 -29.998 L -5.909 0 Z" stroke-linecap="round" />
</g>
		<g transform="matrix(1.33 0 0 -1.33 167.39 70.07)" id="path42" clip-path="url(#CLIPPATH_7)"  >
<clipPath id="CLIPPATH_7" >
	<path transform="matrix(1 0 0 1 -127.3 52.55) translate(-350.22, -112.55)" id="path24" d="M 0 225.104 L 700.436 225.104 L 700.436 0 L 0 0 Z" stroke-linecap="round" />
</clipPath>
<path style="stroke: none; stroke-width: 1; stroke-dasharray: none; stroke-linecap: butt; stroke-dashoffset: 0; stroke-linejoin: miter; stroke-miterlimit: 4; fill: rgb(63,169,245); fill-rule: nonzero; opacity: 1;" vector-effect="non-scaling-stroke"  transform=" translate(8.88, 10.11)" d="M 0 0 L -5.989 0 L -5.989 -25.11 L -11.898 -25.11 L -11.898 0 L -17.767 0 L -17.767 4.888 L 0 4.888 Z" stroke-linecap="round" />
</g>
		<g transform="matrix(1.33 0 0 -1.33 190.35 70.07)" id="path44" clip-path="url(#CLIPPATH_8)"  >
<clipPath id="CLIPPATH_8" >
	<path transform="matrix(1 0 0 1 -144.52 52.55) translate(-350.22, -112.55)" id="path24" d="M 0 225.104 L 700.436 225.104 L 700.436 0 L 0 0 Z" stroke-linecap="round" />
</clipPath>
<path style="stroke: none; stroke-width: 1; stroke-dasharray: none; stroke-linecap: butt; stroke-dashoffset: 0; stroke-linejoin: miter; stroke-miterlimit: 4; fill: rgb(63,169,245); fill-rule: nonzero; opacity: 1;" vector-effect="non-scaling-stroke"  transform=" translate(-494.74, -60)" d="M 497.711 45.003 L 491.762 45.003 L 491.762 75.001 L 497.711 75.001 z" stroke-linecap="round" />
</g>
		<g transform="matrix(1.33 0 0 -1.33 211.42 68.02)" id="path46" clip-path="url(#CLIPPATH_9)"  >
<clipPath id="CLIPPATH_9" >
	<path transform="matrix(1 0 0 1 -160.33 51.01) translate(-350.22, -112.55)" id="path24" d="M 0 225.104 L 700.436 225.104 L 700.436 0 L 0 0 Z" stroke-linecap="round" />
</clipPath>
<path style="stroke: none; stroke-width: 1; stroke-dasharray: none; stroke-linecap: butt; stroke-dashoffset: 0; stroke-linejoin: miter; stroke-miterlimit: 4; fill: rgb(63,169,245); fill-rule: nonzero; opacity: 1;" vector-effect="non-scaling-stroke"  transform=" translate(-510.54, -61.54)" d="M 517.226 59.154 L 503.861 59.154 L 503.861 63.923 L 517.226 63.923 z" stroke-linecap="round" />
</g>
		<g transform="matrix(1.33 0 0 -1.33 245.53 69.91)" id="path50" clip-path="url(#CLIPPATH_10)"  >
<clipPath id="CLIPPATH_10" >
	<path transform="matrix(1 0 0 1 -185.91 52.43) translate(-350.22, -112.55)" id="path24" d="M 0 225.104 L 700.436 225.104 L 700.436 0 L 0 0 Z" stroke-linecap="round" />
</clipPath>
<path style="stroke: none; stroke-width: 1; stroke-dasharray: none; stroke-linecap: butt; stroke-dashoffset: 0; stroke-linejoin: miter; stroke-miterlimit: 4; fill: rgb(63,169,245); fill-rule: nonzero; opacity: 1;" vector-effect="non-scaling-stroke"  transform=" translate(4.22, -3.84)" d="M 0 0 L -3.926 11.194 L -8.09 0 Z M -1.111 18.96 L 10.073 -11.274 L 4.204 -11.274 L 1.7849999999999997 -5.163999999999999 L -10.113 -5.163999999999999 L -12.453 -11.274 L -18.52 -11.274 L -6.742 18.96 Z" stroke-linecap="round" />
</g>
		<g transform="matrix(1.33 0 0 -1.33 275.7 70.07)" id="path52" clip-path="url(#CLIPPATH_11)"  >
<clipPath id="CLIPPATH_11" >
	<path transform="matrix(1 0 0 1 -208.54 52.55) translate(-350.22, -112.55)" id="path24" d="M 0 225.104 L 700.436 225.104 L 700.436 0 L 0 0 Z" stroke-linecap="round" />
</clipPath>
<path style="stroke: none; stroke-width: 1; stroke-dasharray: none; stroke-linecap: butt; stroke-dashoffset: 0; stroke-linejoin: miter; stroke-miterlimit: 4; fill: rgb(63,169,245); fill-rule: nonzero; opacity: 1;" vector-effect="non-scaling-stroke"  transform=" translate(-558.76, -60)" d="M 561.73 45.003 L 555.7810000000001 45.003 L 555.7810000000001 75.001 L 561.73 75.001 z" stroke-linecap="round" />
</g>
		<g transform="matrix(1.33 0 0 -1.33 318.79 70.07)" id="path56" clip-path="url(#CLIPPATH_12)"  >
<clipPath id="CLIPPATH_12" >
	<path transform="matrix(1 0 0 1 -240.85 52.55) translate(-350.22, -112.55)" id="path24" d="M 0 225.104 L 700.436 225.104 L 700.436 0 L 0 0 Z" stroke-linecap="round" />
</clipPath>
<path style="stroke: none; stroke-width: 1; stroke-dasharray: none; stroke-linecap: butt; stroke-dashoffset: 0; stroke-linejoin: miter; stroke-miterlimit: 4; fill: rgb(63,169,245); fill-rule: nonzero; opacity: 1;" vector-effect="non-scaling-stroke"  transform=" translate(-4.59, -10.11)" d="M 0 0 C 3.172 0 7.02 0.118 9.32 3.785 C 11.224 6.899 11.501000000000001 12.535 9.637 15.846 C 7.06 20.38 4.085 20.222 0.079 20.222 L -1.745 20.222 L -1.745 0 Z M 14.714 19.71 C 17.608 14.743000000000002 17.568 6.15 14.714 1.301000000000002 C 11.58 -3.981 6.266 -4.888 1.666 -4.888 L -7.693999999999999 -4.888 L -7.693999999999999 25.11 L 3.172 25.11 C 7.02 25.11 11.699 24.874 14.714 19.71" stroke-linecap="round" />
</g>
		<g transform="matrix(1.33 0 0 -1.33 363.07 69.83)" id="path60" clip-path="url(#CLIPPATH_13)"  >
<clipPath id="CLIPPATH_13" >
	<path transform="matrix(1 0 0 1 -274.06 52.37) translate(-350.22, -112.55)" id="path24" d="M 0 225.104 L 700.436 225.104 L 700.436 0 L 0 0 Z" stroke-linecap="round" />
</clipPath>
<path style="stroke: none; stroke-width: 1; stroke-dasharray: none; stroke-linecap: butt; stroke-dashoffset: 0; stroke-linejoin: miter; stroke-miterlimit: 4; fill: rgb(63,169,245); fill-rule: nonzero; opacity: 1;" vector-effect="non-scaling-stroke"  transform=" translate(9.8, 0)" d="M 0 0 C 0 5.361 -4.402 9.736 -9.835 9.736 C -15.229000000000001 9.736 -19.631 5.361000000000001 -19.631 0 C -19.631 -5.401 -15.229 -9.776 -9.835 -9.776 C -4.402 -9.776 0 -5.401 0 0 M -9.835 15.492 C -1.189 15.492 5.79 8.554 5.79 0 C 5.79 -8.594 -1.189 -15.492 -9.835 -15.492 C -18.441000000000003 -15.492 -25.381 -8.594000000000001 -25.381 0 C -25.381 8.554 -18.441 15.492 -9.835 15.492" stroke-linecap="round" />
</g>
		<g transform="matrix(1.33 0 0 -1.33 405.88 70.07)" id="path64" clip-path="url(#CLIPPATH_14)"  >
<clipPath id="CLIPPATH_14" >
	<path transform="matrix(1 0 0 1 -306.17 52.55) translate(-350.22, -112.55)" id="path24" d="M 0 225.104 L 700.436 225.104 L 700.436 0 L 0 0 Z" stroke-linecap="round" />
</clipPath>
<path style="stroke: none; stroke-width: 1; stroke-dasharray: none; stroke-linecap: butt; stroke-dashoffset: 0; stroke-linejoin: miter; stroke-miterlimit: 4; fill: rgb(63,169,245); fill-rule: nonzero; opacity: 1;" vector-effect="non-scaling-stroke"  transform=" translate(-0.93, 1.28)" d="M 0 0 C 1.586 0.315 2.856 1.143 3.49 2.759 C 4.005 4.178 4.005 6.267 3.014 7.49 C 1.785 9.027 -2.063 8.829 -3.45 8.829 L -3.45 -0.2370000000000001 C -2.221 -0.2370000000000001 -1.1500000000000004 -0.2370000000000001 0 -1.1102230246251565e-16 M -1.586 13.717 C 2.4189999999999996 13.717 6.542999999999999 13.599 8.923 8.987 C 10.431000000000001 6.109 10.153 2.247 8.447 -0.15799999999999947 C 6.821 -2.523 4.521 -3.469 2.737 -3.745 L 11.263 -16.28 L 4.759 -16.28 L -3.45 -4.612 L -3.45 -16.28 L -9.399000000000001 -16.28 L -9.399000000000001 13.716999999999999 z" stroke-linecap="round" />
</g>
		<g transform="matrix(1.33 0 0 -1.33 429.97 70.07)" id="path66" clip-path="url(#CLIPPATH_15)"  >
<clipPath id="CLIPPATH_15" >
	<path transform="matrix(1 0 0 1 -324.24 52.55) translate(-350.22, -112.55)" id="path24" d="M 0 225.104 L 700.436 225.104 L 700.436 0 L 0 0 Z" stroke-linecap="round" />
</clipPath>
<path style="stroke: none; stroke-width: 1; stroke-dasharray: none; stroke-linecap: butt; stroke-dashoffset: 0; stroke-linejoin: miter; stroke-miterlimit: 4; fill: rgb(63,169,245); fill-rule: nonzero; opacity: 1;" vector-effect="non-scaling-stroke"  transform=" translate(-674.46, -60)" d="M 677.432 45.003 L 671.4830000000001 45.003 L 671.4830000000001 75.001 L 677.432 75.001 z" stroke-linecap="round" />
</g>
		<g transform="matrix(1.33 0 0 -1.33 452.77 70.07)" id="path70" clip-path="url(#CLIPPATH_16)"  >
<clipPath id="CLIPPATH_16" >
	<path transform="matrix(1 0 0 1 -341.33 52.55) translate(-350.22, -112.55)" id="path24" d="M 0 225.104 L 700.436 225.104 L 700.436 0 L 0 0 Z" stroke-linecap="round" />
</clipPath>
<path style="stroke: none; stroke-width: 1; stroke-dasharray: none; stroke-linecap: butt; stroke-dashoffset: 0; stroke-linejoin: miter; stroke-miterlimit: 4; fill: rgb(63,169,245); fill-rule: nonzero; opacity: 1;" vector-effect="non-scaling-stroke"  transform=" translate(8.88, 10.11)" d="M 0 0 L -5.988 0 L -5.988 -25.11 L -11.898 -25.11 L -11.898 0 L -17.767 0 L -17.767 4.888 L 0 4.888 Z" stroke-linecap="round" />
</g>
		<g transform="matrix(1.33 0 0 -1.33 -55.77 -40.02)" id="path74" clip-path="url(#CLIPPATH_17)"  >
<clipPath id="CLIPPATH_17" >
	<path transform="matrix(1 0 0 1 40.06 -30.01) translate(-350.22, -112.55)" id="path24" d="M 0 225.104 L 700.436 225.104 L 700.436 0 L 0 0 Z" stroke-linecap="round" />
</clipPath>
<path style="stroke: none; stroke-width: 1; stroke-dasharray: none; stroke-linecap: butt; stroke-dashoffset: 0; stroke-linejoin: miter; stroke-miterlimit: 4; fill: rgb(32,62,95); fill-rule: nonzero; opacity: 1;" vector-effect="non-scaling-stroke"  transform=" translate(-10.04, 3.3)" d="M 0 0 C 2.7 0 7 -0.098 9.2 0.197 C 13.701 0.5920000000000001 16.601 1.776 18.401 5.623 C 20.001 8.879 20.201 13.219000000000001 18.401 16.376 C 14.901 22.985 8.4 21.998 5.8 21.998 L 0 21.998 Z M 32.102 22.985 C 35.802 16.572 36.602 5.425999999999998 31.401999999999997 -1.972999999999999 C 23.901 -12.627 11.5 -12.429 3.5 -12.429 L 0 -12.429 L 0 -40.839 L -15.001 -40.839 L -15.001 34.23 L 7.4 34.23 C 18.201 34.23 26.000999999999998 33.638 32.102000000000004 22.985" stroke-linecap="round" />
</g>
		<g transform="matrix(1.33 0 0 -1.33 7.63 -40.02)" id="path76" clip-path="url(#CLIPPATH_18)"  >
<clipPath id="CLIPPATH_18" >
	<path transform="matrix(1 0 0 1 -7.48 -30.01) translate(-350.22, -112.55)" id="path24" d="M 0 225.104 L 700.436 225.104 L 700.436 0 L 0 0 Z" stroke-linecap="round" />
</clipPath>
<path style="stroke: none; stroke-width: 1; stroke-dasharray: none; stroke-linecap: butt; stroke-dashoffset: 0; stroke-linejoin: miter; stroke-miterlimit: 4; fill: rgb(32,62,95); fill-rule: nonzero; opacity: 1;" vector-effect="non-scaling-stroke"  transform=" translate(-357.7, -142.57)" d="M 365.2 105.032 L 350.199 105.032 L 350.199 180.101 L 365.2 180.101 Z" stroke-linecap="round" />
</g>
		<g transform="matrix(1.33 0 0 -1.33 74.98 -40.02)" id="path80" clip-path="url(#CLIPPATH_19)"  >
<clipPath id="CLIPPATH_19" >
	<path transform="matrix(1 0 0 1 -57.99 -30.01) translate(-350.22, -112.55)" id="path24" d="M 0 225.104 L 700.436 225.104 L 700.436 0 L 0 0 Z" stroke-linecap="round" />
</clipPath>
<path style="stroke: none; stroke-width: 1; stroke-dasharray: none; stroke-linecap: butt; stroke-dashoffset: 0; stroke-linejoin: miter; stroke-miterlimit: 4; fill: rgb(32,62,95); fill-rule: nonzero; opacity: 1;" vector-effect="non-scaling-stroke"  transform=" translate(28.01, 18.77)" d="M 0 0 C -10.001 7.004 -19.201 6.421 -26.002 3.405 C -34.503 -0.38900000000000023 -39.303 -7.393000000000001 -40.703 -14.397 C -41.903000000000006 -21.401 -41.403000000000006 -29.865000000000002 -33.503 -37.063 C -27.802 -42.317 -19.901 -45.040000000000006 -12.001000000000001 -43.386 C -6.801000000000001 -42.317 -3.801000000000002 -40.370000000000005 -1.7763568394002505e-15 -37.550000000000004 L -1.7763568394002505e-15 -51.849000000000004 C -12.201000000000002 -57.492000000000004 -26.202000000000005 -58.465 -38.703 -50.682 C -54.004000000000005 -41.149 -56.20400000000001 -28.6 -56.004000000000005 -17.413000000000004 C -55.804 -7.004000000000003 -50.203 5.739999999999995 -37.003 13.618999999999996 C -25.302 20.525999999999996 -11.800999999999998 19.941999999999997 0 15.077999999999996 z" stroke-linecap="round" />
</g>
		<g transform="matrix(1.33 0 0 -1.33 184.73 -40.02)" id="path84" clip-path="url(#CLIPPATH_20)"  >
<clipPath id="CLIPPATH_20" >
	<path transform="matrix(1 0 0 1 -140.3 -30.01) translate(-350.22, -112.55)" id="path24" d="M 0 225.104 L 700.436 225.104 L 700.436 0 L 0 0 Z" stroke-linecap="round" />
</clipPath>
<path style="stroke: none; stroke-width: 1; stroke-dasharray: none; stroke-linecap: butt; stroke-dashoffset: 0; stroke-linejoin: miter; stroke-miterlimit: 4; fill: rgb(32,62,95); fill-rule: nonzero; opacity: 1;" vector-effect="non-scaling-stroke"  transform=" translate(24.7, 0)" d="M 0 0 C 0 12.989 -11.101 23.591 -24.801 23.591 C -38.402 23.591 -49.503 12.989 -49.503 0 C -49.503 -13.085 -38.402 -23.686 -24.801 -23.686 C -11.101 -23.686 0 -13.085 0 0 M -24.801 37.535 C -3 37.535 14.602 20.725 14.602 0 C 14.602 -20.821 -3 -37.535 -24.801 -37.535 C -46.503 -37.535 -64.004 -20.820999999999998 -64.004 0 C -64.004 20.725 -46.503 37.535 -24.801000000000002 37.535" stroke-linecap="round" />
</g>
		<g transform="matrix(1.33 0 0 -1.33 284.27 -40.02)" id="path88" clip-path="url(#CLIPPATH_21)"  >
<clipPath id="CLIPPATH_21" >
	<path transform="matrix(1 0 0 1 -214.96 -30.01) translate(-350.22, -112.55)" id="path24" d="M 0 225.104 L 700.436 225.104 L 700.436 0 L 0 0 Z" stroke-linecap="round" />
</clipPath>
<path style="stroke: none; stroke-width: 1; stroke-dasharray: none; stroke-linecap: butt; stroke-dashoffset: 0; stroke-linejoin: miter; stroke-miterlimit: 4; fill: rgb(32,62,95); fill-rule: nonzero; opacity: 1;" vector-effect="non-scaling-stroke"  transform=" translate(-20.35, 37.53)" d="M 0 0 L 40.703 0 L 40.703 -12.232 L 15.001 -12.232 L 15.001 -32.454 L 40.703 -32.454 L 40.703 -45.475 L 15.001 -45.475 L 15.001 -75.069 L 0 -75.069 Z" stroke-linecap="round" />
</g>
		<g transform="matrix(1.33 0 0 -1.33 341.4 -40.02)" id="path90" clip-path="url(#CLIPPATH_22)"  >
<clipPath id="CLIPPATH_22" >
	<path transform="matrix(1 0 0 1 -257.81 -30.01) translate(-350.22, -112.55)" id="path24" d="M 0 225.104 L 700.436 225.104 L 700.436 0 L 0 0 Z" stroke-linecap="round" />
</clipPath>
<path style="stroke: none; stroke-width: 1; stroke-dasharray: none; stroke-linecap: butt; stroke-dashoffset: 0; stroke-linejoin: miter; stroke-miterlimit: 4; fill: rgb(32,62,95); fill-rule: nonzero; opacity: 1;" vector-effect="non-scaling-stroke"  transform=" translate(-608.03, -142.57)" d="M 615.53 105.032 L 600.529 105.032 L 600.529 180.101 L 615.53 180.101 z" stroke-linecap="round" />
</g>
		<g transform="matrix(1.33 0 0 -1.33 418.01 -40.02)" id="path94" clip-path="url(#CLIPPATH_23)"  >
<clipPath id="CLIPPATH_23" >
	<path transform="matrix(1 0 0 1 -315.27 -30.01) translate(-350.22, -112.55)" id="path24" d="M 0 225.104 L 700.436 225.104 L 700.436 0 L 0 0 Z" stroke-linecap="round" />
</clipPath>
<path style="stroke: none; stroke-width: 1; stroke-dasharray: none; stroke-linecap: butt; stroke-dashoffset: 0; stroke-linejoin: miter; stroke-miterlimit: 4; fill: rgb(32,62,95); fill-rule: nonzero; opacity: 1;" vector-effect="non-scaling-stroke"  transform=" translate(-15.55, 37.53)" d="M 0 0 L 16.001 -23.971 L 32.102 0 L 48.402 0 L 24.301 -36.005 L 50.503 -75.069 L 34.802 -75.069 L 16.001 -47.152 L -3.4 -75.069 L -19.401 -75.069 L 7.4 -36.104 L -15.801 0 Z" stroke-linecap="round" />
</g>
		<g transform="matrix(1.33 0 0 -1.33 -319.23 0)" id="path114"  >
<radialGradient id="SVGID_radialGradient112_3" gradientUnits="userSpaceOnUse" gradientTransform="matrix(109.03 0 0 -109.03 112.55 112.55)"  cx="0" cy="0" r="1" fx="0" fy="0">
<stop offset="0%" style="stop-color:rgb(255,255,255);stop-opacity: 1"/>
<stop offset="100%" style="stop-color:rgb(63,169,245);stop-opacity: 1"/>
</radialGradient>
<path style="stroke: none; stroke-width: 1; stroke-dasharray: none; stroke-linecap: butt; stroke-dashoffset: 0; stroke-linejoin: miter; stroke-miterlimit: 4; fill: url(#SVGID_radialGradient112_3); fill-rule: nonzero; opacity: 1;" vector-effect="non-scaling-stroke"  transform=" translate(-112.55, -112.55)" d="M 112.552 211.106 C 103.101 211.106 92.13400000000001 223.627 83.417 221.297 L 83.417 221.297 C 74.399 218.886 71.169 202.49 63.274 197.922 L 63.274 197.922 C 55.264 193.288 39.464 198.64 32.964 192.139 L 32.964 192.139 C 26.464 185.639 31.816 169.84 27.182 161.83100000000002 L 27.182 161.83100000000002 C 22.613 153.934 6.217 150.705 3.807 141.687 L 3.807 141.687 C 1.4769999999999999 132.971 13.998000000000001 122.00200000000001 13.998000000000001 112.552 L 13.998000000000001 112.552 C 13.998000000000001 103.101 1.4770000000000003 92.13400000000001 3.8070000000000004 83.417 L 3.8070000000000004 83.417 C 6.217 74.399 22.614 71.169 27.183 63.274 L 27.183 63.274 C 31.817 55.264 26.465 39.464 32.964 32.964 L 32.964 32.964 C 39.464999999999996 26.464 55.263999999999996 31.816 63.274 27.182 L 63.274 27.182 C 71.169 22.613 74.399 6.217 83.417 3.807 L 83.417 3.807 C 92.133 1.4769999999999999 103.101 13.998000000000001 112.552 13.998000000000001 L 112.552 13.998000000000001 C 122.00200000000001 13.998000000000001 132.971 1.4770000000000003 141.687 3.8070000000000004 L 141.687 3.8070000000000004 C 150.705 6.2170000000000005 153.935 22.613999999999997 161.83100000000002 27.183 L 161.83100000000002 27.183 C 169.84000000000003 31.817 185.639 26.465 192.14000000000001 32.964 L 192.14000000000001 32.964 C 198.64000000000001 39.464999999999996 193.288 55.263999999999996 197.92200000000003 63.274 L 197.92200000000003 63.274 C 202.49000000000004 71.169 218.88600000000002 74.399 221.29700000000003 83.417 L 221.29700000000003 83.417 C 223.62700000000004 92.133 211.10600000000002 103.101 211.10600000000002 112.552 L 211.10600000000002 112.552 C 211.10600000000002 122.00200000000001 223.627 132.971 221.29700000000003 141.687 L 221.29700000000003 141.687 C 218.88600000000002 150.705 202.49000000000004 153.935 197.92200000000003 161.83100000000002 L 197.92200000000003 161.83100000000002 C 193.288 169.84000000000003 198.64000000000001 185.639 192.13900000000004 192.14000000000001 L 192.13900000000004 192.14000000000001 C 185.63900000000004 198.64000000000001 169.84000000000003 193.288 161.83100000000005 197.92200000000003 L 161.83100000000005 197.92200000000003 C 153.93400000000005 202.49000000000004 150.70500000000004 218.88600000000002 141.68700000000004 221.29700000000003 L 141.68700000000004 221.29700000000003 C 140.94500000000005 221.49600000000004 140.18700000000004 221.586 139.41500000000005 221.586 L 139.41500000000005 221.586 C 131.11500000000004 221.58700000000002 121.19800000000005 211.10600000000002 112.55200000000005 211.10600000000002" stroke-linecap="round" />
</g>
		<g transform="matrix(1.33 0 0 -1.33 -319.23 0)" id="path126" clip-path="url(#CLIPPATH_24)"  >
<clipPath id="CLIPPATH_24" >
	<path transform="matrix(1 0 0 1 237.67 0) translate(-350.22, -112.55)" id="path120" d="M 0 225.104 L 700.436 225.104 L 700.436 0 L 0 0 Z" stroke-linecap="round" />
</clipPath>
<path style="stroke: none; stroke-width: 1; stroke-dasharray: none; stroke-linecap: butt; stroke-dashoffset: 0; stroke-linejoin: miter; stroke-miterlimit: 4; fill: rgb(32,62,95); fill-rule: nonzero; opacity: 1;" vector-effect="non-scaling-stroke"  transform=" translate(82.55, 0)" d="M 0 0 C 0 45.591 -36.959 82.55 -82.55 82.55 C -128.141 82.55 -165.1 45.590999999999994 -165.1 0 C -165.1 -45.591 -128.141 -82.55 -82.55 -82.55 C -36.959 -82.55 0 -45.591 0 0" stroke-linecap="round" />
</g>
		<g transform="matrix(1.33 0 0 -1.33 -319.23 0)" id="path130" clip-path="url(#CLIPPATH_25)"  >
<clipPath id="CLIPPATH_25" >
	<path transform="matrix(1 0 0 1 237.67 0) translate(-350.22, -112.55)" id="path120" d="M 0 225.104 L 700.436 225.104 L 700.436 0 L 0 0 Z" stroke-linecap="round" />
</clipPath>
<path style="stroke: none; stroke-width: 1; stroke-dasharray: none; stroke-linecap: butt; stroke-dashoffset: 0; stroke-linejoin: miter; stroke-miterlimit: 4; fill: rgb(255,255,255); fill-rule: nonzero; opacity: 1;" vector-effect="non-scaling-stroke"  transform=" translate(0, 67.55)" d="M 0 0 C -37.3 0 -67.54 -30.24 -67.54 -67.55 C -67.54 -104.86 -37.30000000000001 -135.1 0 -135.1 C 37.31 -135.1 67.55 -104.86 67.55 -67.55 C 67.55 -30.24 37.31 0 0 0" stroke-linecap="round" />
</g>
		<g transform="matrix(1.33 0 0 -1.33 -319.01 2.73)" id="path134" clip-path="url(#CLIPPATH_26)"  >
<clipPath id="CLIPPATH_26" >
	<path transform="matrix(1 0 0 1 237.5 2.04) translate(-350.22, -112.55)" id="path120" d="M 0 225.104 L 700.436 225.104 L 700.436 0 L 0 0 Z" stroke-linecap="round" />
</clipPath>
<path style="stroke: none; stroke-width: 1; stroke-dasharray: none; stroke-linecap: butt; stroke-dashoffset: 0; stroke-linejoin: miter; stroke-miterlimit: 4; fill: rgb(32,62,95); fill-rule: nonzero; opacity: 1;" vector-effect="non-scaling-stroke"  transform=" translate(0.38, 34.96)" d="M 0 0 L -37.875 -36.941 L -37.875 -69.911 L -12.875 -69.911 L -12.875 -43.911 L 12.125 -43.911 L 12.125 -69.911 L 37.125 -69.911 L 37.125 -35.911 z" stroke-linecap="round" />
</g>
		<g transform="matrix(1.33 0 0 -1.33 -319.61 -30.38)" id="path138" clip-path="url(#CLIPPATH_27)"  >
<clipPath id="CLIPPATH_27" >
	<path transform="matrix(1 0 0 1 237.94 -22.79) translate(-350.22, -112.55)" id="path120" d="M 0 225.104 L 700.436 225.104 L 700.436 0 L 0 0 Z" stroke-linecap="round" />
</clipPath>
<path style="stroke: none; stroke-width: 1; stroke-dasharray: none; stroke-linecap: butt; stroke-dashoffset: 0; stroke-linejoin: miter; stroke-miterlimit: 4; fill: rgb(32,62,95); fill-rule: nonzero; opacity: 1;" vector-effect="non-scaling-stroke"  transform=" translate(50.64, -23.93)" d="M 0 0 L -4.126 -4.034 L -18.69 10.421 L -33.45 25.051000000000002 L -49.92 41.011 L -97.013 -4.417999999999999 L -101.274 -0.23999999999999932 C -102.48 0.9430000000000007 -102.472 2.888000000000001 -101.256 4.061000000000001 L -52.153 51.432 C -50.983 52.561 -49.126 52.553000000000004 -47.967 51.413000000000004 L -33.69 37.381 L -33.69 48.141 L -18.689999999999998 48.141 L -18.689999999999998 24.787 C -18.689999999999998 23.413999999999998 -18.137999999999998 22.099 -17.159 21.137 L 0.005 4.286 C 1.204 3.108 1.202 1.175 0 0" stroke-linecap="round" />
</g>
</g>
</g>
</svg>